# Blender v2.78 (sub 0) OBJ File: 'hand_updated.blend'
# www.blender.org
o bone_thumb_distal
v 65.675583 14.187812 -16.652054
v 64.558426 17.994076 -27.512598
v 54.660236 15.738523 -27.284924
v 55.777401 11.932258 -16.424381
v 59.149223 -4.731481 -34.920734
v 60.266376 -8.537739 -24.060186
v 69.047394 -2.475925 -35.148407
v 70.164574 -6.282191 -24.287867
vn -0.2013 0.9178 0.3423
vn -0.9748 -0.2221 0.0224
vn 0.2013 -0.9178 -0.3423
vn 0.9748 0.2221 -0.0224
vn 0.0966 -0.3292 0.9393
vn -0.0966 0.3292 -0.9393
s 1
f 1//1 2//1 3//1
f 1//1 3//1 4//1
f 5//2 6//2 4//2
f 5//2 4//2 3//2
f 7//3 8//3 5//3
f 8//3 6//3 5//3
f 2//4 1//4 7//4
f 1//4 8//4 7//4
f 1//5 4//5 8//5
f 4//5 6//5 8//5
f 2//6 7//6 5//6
f 2//6 5//6 3//6
