# Blender v2.79 (sub 0) OBJ File: 'hand_updated.blend'
# www.blender.org
o bone_middle_middle_left_bone_middle_middle
v -12.093025 -52.847126 19.976469
v -12.342589 -49.501675 10.033745
v 2.054111 -49.700733 9.605402
v 2.303679 -53.046181 19.548126
v 1.470122 -74.217178 1.370966
v 1.719692 -77.562637 11.313694
v -12.926580 -74.018112 1.799311
v -12.677009 -77.363579 11.742034
vn 0.0226 0.9477 0.3183
vn 0.9995 -0.0138 -0.0297
vn -0.0226 -0.9477 -0.3183
vn -0.9995 0.0138 0.0297
vn 0.0238 -0.3188 0.9475
vn -0.0238 0.3188 -0.9475
s 1
f 1//1 3//1 2//1
f 1//1 4//1 3//1
f 5//2 4//2 6//2
f 5//2 3//2 4//2
f 7//3 5//3 8//3
f 8//3 5//3 6//3
f 2//4 7//4 1//4
f 1//4 7//4 8//4
f 1//5 8//5 4//5
f 4//5 8//5 6//5
f 2//6 5//6 7//6
f 2//6 3//6 5//6
