# Blender v2.78 (sub 0) OBJ File: 'hand_updated.blend'
# www.blender.org
o bone_pinky_middle
v -48.710045 -26.428646 15.274529
v -46.841629 -24.174286 7.422553
v -60.324314 -19.648924 5.513526
v -62.192741 -21.903278 13.365506
v -65.470741 -37.682816 -0.888744
v -67.339165 -39.937164 6.963233
v -51.988045 -42.208179 1.020280
v -53.856472 -44.462536 8.872255
vn 0.2597 0.9100 0.3231
vn -0.9396 0.3154 -0.1330
vn -0.2597 -0.9100 -0.3231
vn 0.9396 -0.3154 0.1330
vn -0.2230 -0.2690 0.9370
vn 0.2230 0.2690 -0.9370
s 1
f 1//1 2//1 3//1
f 1//1 3//1 4//1
f 5//2 6//2 4//2
f 5//2 4//2 3//2
f 7//3 8//3 5//3
f 8//3 6//3 5//3
f 2//4 1//4 7//4
f 1//4 8//4 7//4
f 1//5 4//5 8//5
f 4//5 6//5 8//5
f 2//6 7//6 5//6
f 2//6 5//6 3//6
