# Blender v2.79 (sub 0) OBJ File: 'hand_updated.blend'
# www.blender.org
o bone_pinky_distal_left_bone_pinky_distal
v 58.123089 -47.568764 6.261509
v 56.529888 -45.543583 -0.269902
v 63.633797 -43.150272 -1.260651
v 65.226997 -45.175449 5.270757
v 67.137794 -55.488537 -5.941068
v 68.731003 -57.513702 0.590344
v 60.033890 -57.881836 -4.950317
v 61.627090 -59.907017 1.581094
vn -0.2566 0.9037 0.3428
vn 0.9395 0.3165 -0.1310
vn 0.2566 -0.9037 -0.3428
vn -0.9395 -0.3165 0.1310
vn 0.2269 -0.2884 0.9302
vn -0.2269 0.2884 -0.9302
s 1
f 1//1 3//1 2//1
f 1//1 4//1 3//1
f 5//2 4//2 6//2
f 5//2 3//2 4//2
f 7//3 5//3 8//3
f 8//3 5//3 6//3
f 2//4 7//4 1//4
f 1//4 7//4 8//4
f 1//5 8//5 4//5
f 4//5 8//5 6//5
f 2//6 5//6 7//6
f 2//6 3//6 5//6
