# Blender v2.78 (sub 0) OBJ File: 'hand_updated.blend'
# www.blender.org
o bone_index_distal
v 48.897655 -68.321968 8.906142
v 48.051498 -65.676872 0.999552
v 39.230381 -67.556953 1.314615
v 40.076530 -70.202049 9.221207
v 42.253796 -82.642410 -4.055680
v 43.099953 -85.287506 3.850912
v 51.074913 -80.762329 -4.370741
v 51.921070 -83.407417 3.535847
vn -0.1855 0.9257 0.3296
vn -0.9774 -0.2083 0.0349
vn 0.1855 -0.9257 -0.3296
vn 0.1855 -0.9257 -0.3295
vn 0.9774 0.2083 -0.0349
vn 0.1010 -0.3156 0.9435
vn -0.1010 0.3156 -0.9435
s 1
f 1//1 2//1 3//1
f 1//1 3//1 4//1
f 5//2 6//2 4//2
f 5//2 4//2 3//2
f 7//3 8//3 5//3
f 8//3 6//4 5//3
f 2//5 1//5 7//5
f 1//5 8//5 7//5
f 1//6 4//6 8//6
f 4//6 6//6 8//6
f 2//7 7//7 5//7
f 2//7 5//7 3//7
