# Blender v2.78 (sub 0) OBJ File: 'hand_updated.blend'
# www.blender.org
o bone_ring_distal
v -20.294571 -73.519386 9.875055
v -19.038963 -71.011230 1.978264
v -27.953402 -70.228424 0.809481
v -29.209015 -72.736557 8.706275
v -28.653744 -85.712830 -4.219944
v -29.909355 -88.220963 3.676850
v -19.739298 -86.495636 -3.051162
v -20.994905 -89.003777 4.845631
vn 0.0430 0.9502 0.3086
vn -0.9878 0.0867 -0.1295
vn -0.0430 -0.9502 -0.3086
vn 0.9878 -0.0867 0.1295
vn -0.1498 -0.2993 0.9423
vn 0.1498 0.2993 -0.9423
s 1
f 1//1 2//1 3//1
f 1//1 3//1 4//1
f 5//2 6//2 4//2
f 5//2 4//2 3//2
f 7//3 8//3 5//3
f 8//3 6//3 5//3
f 2//4 1//4 7//4
f 1//4 8//4 7//4
f 1//5 4//5 8//5
f 4//5 6//5 8//5
f 2//6 7//6 5//6
f 2//6 5//6 3//6
