# Blender v2.79 (sub 0) OBJ File: 'hand_updated.blend'
# www.blender.org
o bone_middle_distal_left_bone_middle_distal
v -11.525258 -85.266083 7.344634
v -11.687541 -81.365822 -0.094513
v -0.116761 -81.471642 -0.402410
v 0.045528 -85.371887 7.036737
v -0.449913 -95.904526 -7.962159
v -0.287624 -99.804794 -0.523009
v -12.020696 -95.798721 -7.654263
v -11.858405 -99.698982 -0.215114
vn 0.0204 0.8857 0.4639
vn 0.9996 -0.0091 -0.0266
vn -0.0204 -0.8857 -0.4639
vn -0.9996 0.0091 0.0266
vn 0.0193 -0.4643 0.8855
vn -0.0193 0.4643 -0.8855
s 1
f 1//1 3//1 2//1
f 1//1 4//1 3//1
f 5//2 4//2 6//2
f 5//2 3//2 4//2
f 7//3 5//3 8//3
f 8//3 5//3 6//3
f 2//4 7//4 1//4
f 1//4 7//4 8//4
f 1//5 8//5 4//5
f 4//5 8//5 6//5
f 2//6 5//6 7//6
f 2//6 3//6 5//6
