# Blender v2.79 (sub 0) OBJ File: 'hand_updated.blend'
# www.blender.org
o bone_palm_left_bone_palm
v -30.832211 109.830978 35.779697
v -30.832193 109.830994 1.154957
v 41.336723 110.232391 1.154957
v 41.336735 110.232376 35.779697
v 41.850666 17.826876 1.154953
v 41.850674 17.826881 35.779694
v -30.318268 17.425489 1.154953
v -30.318243 17.425461 35.779694
vn -0.0056 1.0000 0.0000
vn 1.0000 0.0056 -0.0000
vn 0.0056 -1.0000 -0.0000
vn -1.0000 -0.0056 -0.0000
vn 0.0000 -0.0000 1.0000
vn -0.0000 0.0000 -1.0000
s 1
f 1//1 3//1 2//1
f 1//1 4//1 3//1
f 5//2 4//2 6//2
f 5//2 3//2 4//2
f 7//3 5//3 8//3
f 8//3 5//3 6//3
f 2//4 7//4 1//4
f 1//4 7//4 8//4
f 1//5 8//5 4//5
f 4//5 8//5 6//5
f 2//6 5//6 7//6
f 2//6 3//6 5//6
