# Blender v2.79 (sub 0) OBJ File: 'hand_updated.blend'
# www.blender.org
o bone_ring_middle_left_bone_ring_middle
v 16.192953 -42.621445 20.894918
v 14.471565 -39.591064 9.333309
v 28.731312 -38.329712 7.540802
v 30.452698 -41.360092 19.102409
v 30.115362 -63.731236 0.676808
v 31.836754 -66.761620 12.238417
v 15.855617 -64.992599 2.469319
v 17.577013 -68.022972 14.030924
vn -0.0525 0.9640 0.2605
vn 0.9884 0.0874 -0.1242
vn 0.0525 -0.9640 -0.2605
vn -0.9884 -0.0874 0.1242
vn 0.1426 -0.2510 0.9574
vn -0.1426 0.2510 -0.9574
s 1
f 1//1 3//1 2//1
f 1//1 4//1 3//1
f 5//2 4//2 6//2
f 5//2 3//2 4//2
f 7//3 5//3 8//3
f 8//3 5//3 6//3
f 2//4 7//4 1//4
f 1//4 7//4 8//4
f 1//5 8//5 4//5
f 4//5 8//5 6//5
f 2//6 5//6 7//6
f 2//6 3//6 5//6
