# Blender v2.79 (sub 0) OBJ File: 'hand_updated.blend'
# www.blender.org
o bone_thumb_middle_left_bone_thumb_middle
v -54.768864 54.965485 -0.860076
v -53.489056 59.012581 -12.613846
v -40.573586 54.883514 -12.629294
v -41.853386 50.836407 -0.875525
v -50.587467 23.605196 -24.489500
v -51.867268 19.558100 -12.735728
v -63.502937 27.734276 -24.474049
v -64.782730 23.687166 -12.720281
vn 0.2868 0.8958 0.3397
vn 0.9525 -0.3045 -0.0011
vn -0.2868 -0.8958 -0.3397
vn -0.9525 0.3045 0.0011
vn -0.1024 -0.3239 0.9405
vn 0.1024 0.3239 -0.9405
s 1
f 1//1 3//1 2//1
f 1//1 4//1 3//1
f 5//2 4//2 6//2
f 5//2 3//2 4//2
f 7//3 5//3 8//3
f 8//3 5//3 6//3
f 2//4 7//4 1//4
f 1//4 7//4 8//4
f 1//5 8//5 4//5
f 4//5 8//5 6//5
f 2//6 5//6 7//6
f 2//6 3//6 5//6
